# xmcd CD database file
#
# Track frame offsets:
#	182
#	12885
#	55637
#	66762
#	80212
#	102150
#	112822
#	122892
#	130937
#	140532
#	176710
#	190930
#	204547
#	218225
#	232590
#	247990
#
# Disc length: 3506 seconds
#
# Revision: 0
# Processed by: cddbd v1.5.2PL0 Copyright (c) Steve Scherf et al.
# Submitted via: CDex 1.51
#
DISCID=db0db010
DTITLE=Various Artist - 16 All-Time Jazz Sessions 1
DYEAR=1989
DGENRE=Jazz
TTITLE0=Errol Garner - On The Sunny Side Of The Street
TTITLE1=Cannonball Adderley - This Here
TTITLE2=Woody Herman - The Good Earth
TTITLE3=Harry James - Two O'Cock Jump
TTITLE4=Lionel Hampton - Bad Dude
TTITLE5=Nina Simone - It Don't Mean A Thing if You Ain't Got That Swing
TTITLE6=Benny Goodman - Let's Dance
TTITLE7=Louis Armstrong - Stomping At The Savoy
TTITLE8=Fats Waller - Ain't Misbehavin'
TTITLE9=Charlie Mingus - What Is This Thing Called Love
TTITLE10=Duke Ellington - A Cathering In A Clearing
TTITLE11=Ella Fitzgerald - Smooth Sailing
TTITLE12=Count Basie - Jumpin' At The Woodside
TTITLE13=Charlie Parker - Bird Of Paradise
TTITLE14=Billie Holiday - Lover Man
TTITLE15=Sarah Vaughan - The Nearness Of You
EXTD=YEAR: 1989
EXTT0=
EXTT1=
EXTT2=
EXTT3=
EXTT4=
EXTT5=
EXTT6=
EXTT7=
EXTT8=
EXTT9=
EXTT10=
EXTT11=
EXTT12=
EXTT13=
EXTT14=
EXTT15=
PLAYORDER=
